<svg xmlns="http://www.w3.org/2000/svg" xmlns:xlink="http://www.w3.org/1999/xlink"><defs>
<clipPath>
<rect width="24" height="24" fill="white"/>
</clipPath>

<clipPath>
<rect width="24" height="24"/>
</clipPath>

<clipPath>
<rect width="24" height="24" fill="white"/>
</clipPath>

<clipPath>
<rect width="24" height="24" fill="white"/>
</clipPath>

<filter x="0" y="0" width="32" height="32" filterUnits="userSpaceOnUse" color-interpolation-filters="sRGB">
<feFlood flood-opacity="0" result="BackgroundImageFix"/>
<feColorMatrix in="SourceAlpha" type="matrix" values="0 0 0 0 0 0 0 0 0 0 0 0 0 0 0 0 0 0 127 0" result="hardAlpha"/>
<feOffset dy="4"/>
<feGaussianBlur stdDeviation="2"/>
<feComposite in2="hardAlpha" operator="out"/>
<feColorMatrix type="matrix" values="0 0 0 0 0 0 0 0 0 0 0 0 0 0 0 0 0 0 0.25 0"/>
<feBlend mode="normal" in2="BackgroundImageFix" result="effect1_dropShadow_403_3730"/>
<feBlend mode="normal" in="SourceGraphic" in2="effect1_dropShadow_403_3730" result="shape"/>
</filter>
<clipPath>
<rect width="24" height="24" fill="white" transform="translate(4)"/>
</clipPath>

<clipPath>
<rect width="24" height="24" fill="white"/>
</clipPath>

<clipPath>
<rect width="24" height="24" fill="white"/>
</clipPath>

<clipPath>
<rect width="24" height="24" fill="white"/>
</clipPath>

<clipPath>
<rect width="24" height="24" fill="white"/>
</clipPath>

<clipPath>
<rect width="24" height="24" fill="white"/>
</clipPath>

<clipPath>
<rect width="24" height="24" fill="white"/>
</clipPath>

<clipPath>
<rect width="24" height="24" fill="white"/>
</clipPath>

<clipPath>
<rect width="24" height="24" fill="white"/>
</clipPath>

<clipPath id="clip0_403_2886">
<rect width="24" height="24" fill="white"/>
</clipPath>

<clipPath>
<rect width="24" height="24" fill="white"/>
</clipPath>

<clipPath>
<rect width="24" height="24" fill="white"/>
</clipPath>

<clipPath>
<rect width="24" height="24" fill="white"/>
</clipPath>
</defs><symbol id="address-book" viewBox="0 0 24 24"><g fill="currentColor">
<g clip-path="url(#clip0_403_3723)">
<path d="M19.9998 0H2.99983V3H0.999832V5H2.99983V7H0.999832V9H2.99983V11H0.999832V13H2.99983V15H0.999832V17H2.99983V19H0.999832V21H2.99983V24H19.9998C20.7955 24 21.5585 23.6839 22.1212 23.1213C22.6838 22.5587 22.9998 21.7956 22.9998 21V3C22.9998 2.20435 22.6838 1.44129 22.1212 0.87868C21.5585 0.31607 20.7955 0 19.9998 0V0ZM20.9998 21C20.9998 21.2652 20.8945 21.5196 20.7069 21.7071C20.5194 21.8946 20.265 22 19.9998 22H4.99983V2H19.9998C20.265 2 20.5194 2.10536 20.7069 2.29289C20.8945 2.48043 20.9998 2.73478 20.9998 3V21ZM12.9998 12C13.5932 12 14.1732 11.8241 14.6665 11.4944C15.1599 11.1648 15.5444 10.6962 15.7715 10.1481C15.9985 9.59987 16.0579 8.99667 15.9422 8.41473C15.8264 7.83279 15.5407 7.29824 15.1212 6.87868C14.7016 6.45912 14.167 6.1734 13.5851 6.05764C13.0032 5.94189 12.4 6.0013 11.8518 6.22836C11.3036 6.45542 10.8351 6.83994 10.5054 7.33329C10.1758 7.82664 9.99983 8.40666 9.99983 9C9.99983 9.79565 10.3159 10.5587 10.8785 11.1213C11.4411 11.6839 12.2042 12 12.9998 12ZM17.9998 16V18H15.9998V16C15.9998 15.7348 15.8945 15.4804 15.7069 15.2929C15.5194 15.1054 15.265 15 14.9998 15H10.9998C10.7346 15 10.4803 15.1054 10.2927 15.2929C10.1052 15.4804 9.99983 15.7348 9.99983 16V18H7.99983V16C7.99983 15.2044 8.3159 14.4413 8.87851 13.8787C9.44112 13.3161 10.2042 13 10.9998 13H14.9998C15.7955 13 16.5585 13.3161 17.1212 13.8787C17.6838 14.4413 17.9998 15.2044 17.9998 16Z"/>
</g>

</g></symbol><symbol id="angle-small-down" viewBox="0 0 24 24"><g fill="currentColor">
<path d="M18.7099 8.20998C18.6169 8.11625 18.5063 8.04186 18.3845 7.99109C18.2626 7.94032 18.1319 7.91418 17.9999 7.91418C17.8679 7.91418 17.7372 7.94032 17.6153 7.99109C17.4934 8.04186 17.3828 8.11625 17.2899 8.20998L12.7099 12.79C12.6169 12.8837 12.5063 12.9581 12.3845 13.0089C12.2626 13.0596 12.1319 13.0858 11.9999 13.0858C11.8679 13.0858 11.7372 13.0596 11.6153 13.0089C11.4934 12.9581 11.3828 12.8837 11.2899 12.79L6.70988 8.20998C6.61691 8.11625 6.50631 8.04186 6.38445 7.99109C6.26259 7.94032 6.13189 7.91418 5.99988 7.91418C5.86787 7.91418 5.73716 7.94032 5.6153 7.99109C5.49344 8.04186 5.38284 8.11625 5.28988 8.20998C5.10363 8.39734 4.99908 8.6508 4.99908 8.91498C4.99908 9.17917 5.10363 9.43262 5.28988 9.61998L9.87988 14.21C10.4424 14.7718 11.2049 15.0873 11.9999 15.0873C12.7949 15.0873 13.5574 14.7718 14.1199 14.21L18.7099 9.61998C18.8961 9.43262 19.0007 9.17917 19.0007 8.91498C19.0007 8.6508 18.8961 8.39734 18.7099 8.20998Z"/>
</g></symbol><symbol id="bell-ring" viewBox="0 0 24 24"><g fill="currentColor">
<g clip-path="url(#clip0_403_3160)">
<path d="M20.8589 15.3311L17.0869 21.4861C16.6727 22.1661 16.1088 22.7426 15.4382 23.1719C14.7675 23.6011 14.0078 23.8717 13.2169 23.9631C13.0085 23.9878 12.7988 24.0002 12.5889 24.0001C11.5143 23.9986 10.4665 23.6651 9.58888 23.0451C8.68193 23.7245 7.56161 24.0567 6.43088 23.9813C5.30016 23.9059 4.23384 23.428 3.42512 22.6341C2.61641 21.8403 2.11879 20.783 2.02243 19.6539C1.92608 18.5248 2.23736 17.3985 2.89988 16.4791L1.58488 15.1661C1.02337 14.6045 0.596192 13.9232 0.335328 13.1732C0.0744636 12.4232 -0.0133237 11.6238 0.0785403 10.835C0.170404 10.0463 0.439539 9.28848 0.865788 8.61847C1.29204 7.94845 1.86435 7.38355 2.53988 6.96608L8.30688 3.40008C9.86909 2.39886 11.7062 1.91343 13.5591 2.0123C15.412 2.11116 17.1871 2.78931 18.6339 3.95108L20.2929 2.29208C20.3851 2.19657 20.4955 2.12039 20.6175 2.06798C20.7395 2.01557 20.8707 1.98799 21.0035 1.98683C21.1363 1.98568 21.2679 2.01098 21.3908 2.06126C21.5137 2.11154 21.6254 2.18579 21.7193 2.27969C21.8132 2.37358 21.8874 2.48523 21.9377 2.60813C21.988 2.73102 22.0133 2.8627 22.0121 2.99548C22.011 3.12826 21.9834 3.25948 21.931 3.38149C21.8786 3.50349 21.8024 3.61384 21.7069 3.70608L20.0499 5.36408C21.1612 6.75632 21.8319 8.44851 21.976 10.2241C22.1201 11.9996 21.7311 13.7778 20.8589 15.3311ZM8.06488 21.6471L4.34588 17.9271C4.05525 18.4468 3.94316 19.0476 4.0268 19.6372C4.11043 20.2268 4.38517 20.7726 4.80888 21.1911C5.2363 21.5971 5.77995 21.8593 6.36377 21.9411C6.94759 22.0228 7.54236 21.9201 8.06488 21.6471ZM17.9859 6.04708C16.8754 4.92592 15.4136 4.22011 13.8451 4.04772C12.2765 3.87534 10.6963 4.24684 9.36888 5.10008L3.59188 8.66608C3.17292 8.92505 2.81798 9.27544 2.55363 9.69103C2.28929 10.1066 2.1224 10.5766 2.06545 11.0659C2.00851 11.5551 2.06298 12.0509 2.2248 12.5161C2.38663 12.9813 2.6516 13.4038 2.99988 13.7521L10.2899 21.0431C10.6387 21.3923 11.0622 21.6579 11.5285 21.8199C11.9947 21.9819 12.4917 22.036 12.9819 21.9783C13.4721 21.9205 13.9429 21.7524 14.3587 21.4865C14.7746 21.2206 15.1247 20.8638 15.3829 20.4431L19.1379 14.3181C19.8713 13.0008 20.1556 11.4805 19.9477 9.98718C19.7399 8.49389 19.0512 7.10898 17.9859 6.04208V6.04708ZM19.2649 24.0001C19.0537 24.0005 18.8478 23.934 18.6767 23.8102C18.5056 23.6863 18.3782 23.5115 18.3125 23.3108C18.2469 23.1101 18.2466 22.8937 18.3115 22.6927C18.3764 22.4918 18.5032 22.3165 18.6739 22.1921C20.4249 20.8756 21.6099 18.9427 21.9889 16.7851C22.0154 16.6552 22.0676 16.5319 22.1422 16.4223C22.2169 16.3128 22.3126 16.2192 22.4238 16.1469C22.535 16.0747 22.6594 16.0253 22.7898 16.0016C22.9203 15.9779 23.0541 15.9804 23.1836 16.0089C23.3131 16.0374 23.4356 16.0914 23.544 16.1677C23.6525 16.244 23.7446 16.341 23.8152 16.4533C23.8858 16.5655 23.9333 16.6907 23.955 16.8215C23.9768 16.9522 23.9723 17.086 23.9419 17.2151C23.4519 19.8467 21.9933 22.1991 19.8539 23.8081C19.6828 23.9328 19.4766 24 19.2649 24.0001ZM0.999876 5.73908C0.815179 5.73826 0.634318 5.6863 0.477347 5.58897C0.320376 5.49163 0.193429 5.35273 0.110581 5.18765C0.0277322 5.02258 -0.00777989 4.83778 0.00798181 4.65375C0.0237435 4.46973 0.0901632 4.29366 0.199876 4.14508C1.83086 1.96567 4.2317 0.490404 6.91288 0.0200819C7.17279 -0.0329614 7.44313 0.0194175 7.66442 0.165696C7.88571 0.311974 8.03983 0.54017 8.09288 0.800082C8.14592 1.05999 8.09354 1.33033 7.94726 1.55163C7.80098 1.77292 7.57279 1.92704 7.31288 1.98008C5.11085 2.3437 3.13511 3.54571 1.79988 5.33408C1.70725 5.4592 1.5867 5.56096 1.44781 5.63127C1.30893 5.70159 1.15554 5.7385 0.999876 5.73908Z"/>
</g>

</g></symbol><symbol id="book-alt" viewBox="0 0 24 24"><g fill="currentColor">
<g clip-path="url(#clip0_403_3682)">
<path d="M22.922 1.7C22.5852 1.41773 22.1903 1.21329 21.7654 1.10128C21.3405 0.989266 20.8961 0.97244 20.464 1.052L14.284 2.175C13.3997 2.33446 12.5949 2.78755 12 3.461C11.4055 2.78644 10.6007 2.33226 9.716 2.172L3.536 1.049C3.10377 0.970515 2.65957 0.987911 2.2348 1.09996C1.81004 1.21201 1.41506 1.41598 1.07778 1.69746C0.740505 1.97893 0.469162 2.33105 0.282926 2.72892C0.0966906 3.12679 0.000106745 3.5607 0 4L0 20.834L12 23.017L24 20.834V4C24 3.56103 23.9035 3.12741 23.7172 2.72993C23.5309 2.33244 23.2594 1.98082 22.922 1.7ZM11 20.8L2 19.166V4C2.00012 3.85359 2.0324 3.709 2.09454 3.57643C2.15668 3.44386 2.24717 3.32655 2.35962 3.23279C2.47208 3.13903 2.60374 3.07111 2.74533 3.03383C2.88691 2.99654 3.03495 2.9908 3.179 3.017L9.358 4.14C9.81882 4.22385 10.2356 4.46677 10.5357 4.82641C10.8357 5.18606 11.0001 5.63962 11 6.108V20.8ZM22 19.164L13 20.8V6.108C12.9999 5.63962 13.1643 5.18606 13.4643 4.82641C13.7644 4.46677 14.1812 4.22385 14.642 4.14L20.821 3.017C20.965 2.9908 21.1131 2.99654 21.2547 3.03383C21.3963 3.07111 21.5279 3.13903 21.6404 3.23279C21.7528 3.32655 21.8433 3.44386 21.9055 3.57643C21.9676 3.709 21.9999 3.85359 22 4V19.164Z"/>
</g>

</g></symbol><symbol id="chart-tree" viewBox="0 0 24 24"><g fill="currentColor">
<g clip-path="url(#clip0_403_3634)">
<path d="M20.9998 16.1268V14.9998C20.9998 14.2042 20.6837 13.4411 20.1211 12.8785C19.5585 12.3159 18.7954 11.9998 17.9998 11.9998H12.9998V9.89983C14.2138 9.65202 15.2926 8.96225 16.027 7.96424C16.7613 6.96624 17.099 5.73111 16.9744 4.49831C16.8499 3.26551 16.2721 2.12286 15.3529 1.2919C14.4338 0.460934 13.2388 0.000854492 11.9998 0.000854492C10.7607 0.000854492 9.56575 0.460934 8.64661 1.2919C7.72748 2.12286 7.14962 3.26551 7.02508 4.49831C6.90055 5.73111 7.23819 6.96624 7.97257 7.96424C8.70694 8.96225 9.78572 9.65202 10.9998 9.89983V11.9998H5.99977C5.20412 11.9998 4.44105 12.3159 3.87845 12.8785C3.31584 13.4411 2.99977 14.2042 2.99977 14.9998V16.1268C2.05711 16.3702 1.23558 16.9491 0.689164 17.7548C0.142751 18.5606 -0.0910276 19.538 0.0316468 20.5038C0.154321 21.4696 0.625027 22.3576 1.35553 23.0012C2.08604 23.6447 3.02619 23.9998 3.99977 23.9998C4.97334 23.9998 5.91349 23.6447 6.644 23.0012C7.3745 22.3576 7.84521 21.4696 7.96788 20.5038C8.09056 19.538 7.85678 18.5606 7.31037 17.7548C6.76395 16.9491 5.94242 16.3702 4.99977 16.1268V14.9998C4.99977 14.7346 5.10512 14.4803 5.29266 14.2927C5.4802 14.1052 5.73455 13.9998 5.99977 13.9998H10.9998V16.1268C10.0571 16.3702 9.23558 16.9491 8.68916 17.7548C8.14275 18.5606 7.90897 19.538 8.03165 20.5038C8.15432 21.4696 8.62503 22.3576 9.35553 23.0012C10.086 23.6447 11.0262 23.9998 11.9998 23.9998C12.9733 23.9998 13.9135 23.6447 14.644 23.0012C15.3745 22.3576 15.8452 21.4696 15.9679 20.5038C16.0906 19.538 15.8568 18.5606 15.3104 17.7548C14.764 16.9491 13.9424 16.3702 12.9998 16.1268V13.9998H17.9998C18.265 13.9998 18.5193 14.1052 18.7069 14.2927C18.8944 14.4803 18.9998 14.7346 18.9998 14.9998V16.1268C18.0571 16.3702 17.2356 16.9491 16.6892 17.7548C16.1428 18.5606 15.909 19.538 16.0316 20.5038C16.1543 21.4696 16.625 22.3576 17.3555 23.0012C18.086 23.6447 19.0262 23.9998 19.9998 23.9998C20.9733 23.9998 21.9135 23.6447 22.644 23.0012C23.3745 22.3576 23.8452 21.4696 23.9679 20.5038C24.0906 19.538 23.8568 18.5606 23.3104 17.7548C22.764 16.9491 21.9424 16.3702 20.9998 16.1268ZM8.99977 4.99983C8.99977 4.40649 9.17571 3.82647 9.50536 3.33312C9.835 2.83978 10.3035 2.45526 10.8517 2.2282C11.3999 2.00113 12.0031 1.94172 12.585 2.05748C13.167 2.17323 13.7015 2.45896 14.1211 2.87851C14.5406 3.29807 14.8264 3.83262 14.9421 4.41456C15.0579 4.99651 14.9985 5.59971 14.7714 6.14788C14.5443 6.69606 14.1598 7.1646 13.6665 7.49424C13.1731 7.82389 12.5931 7.99983 11.9998 7.99983C11.2041 7.99983 10.4411 7.68376 9.87844 7.12115C9.31584 6.55855 8.99977 5.79548 8.99977 4.99983ZM5.99977 19.9998C5.99977 20.3954 5.88247 20.7821 5.6627 21.111C5.44294 21.4399 5.13058 21.6962 4.76513 21.8476C4.39968 21.999 3.99755 22.0386 3.60959 21.9614C3.22162 21.8842 2.86526 21.6938 2.58555 21.414C2.30585 21.1343 2.11537 20.778 2.0382 20.39C1.96102 20.0021 2.00063 19.5999 2.15201 19.2345C2.30338 18.869 2.55973 18.5567 2.88863 18.3369C3.21752 18.1171 3.6042 17.9998 3.99977 17.9998C4.5302 17.9998 5.03891 18.2105 5.41398 18.5856C5.78905 18.9607 5.99977 19.4694 5.99977 19.9998ZM13.9998 19.9998C13.9998 20.3954 13.8825 20.7821 13.6627 21.111C13.4429 21.4399 13.1306 21.6962 12.7651 21.8476C12.3997 21.999 11.9975 22.0386 11.6096 21.9614C11.2216 21.8842 10.8653 21.6938 10.5856 21.414C10.3058 21.1343 10.1154 20.778 10.0382 20.39C9.96102 20.0021 10.0006 19.5999 10.152 19.2345C10.3034 18.869 10.5597 18.5567 10.8886 18.3369C11.2175 18.1171 11.6042 17.9998 11.9998 17.9998C12.5302 17.9998 13.0389 18.2105 13.414 18.5856C13.7891 18.9607 13.9998 19.4694 13.9998 19.9998ZM19.9998 21.9998C19.6042 21.9998 19.2175 21.8825 18.8886 21.6628C18.5597 21.443 18.3034 21.1307 18.152 20.7652C18.0006 20.3997 17.961 19.9976 18.0382 19.6097C18.1154 19.2217 18.3058 18.8653 18.5856 18.5856C18.8653 18.3059 19.2216 18.1154 19.6096 18.0383C19.9975 17.9611 20.3997 18.0007 20.7651 18.1521C21.1306 18.3034 21.4429 18.5598 21.6627 18.8887C21.8825 19.2176 21.9998 19.6043 21.9998 19.9998C21.9998 20.5303 21.7891 21.039 21.414 21.414C21.0389 21.7891 20.5302 21.9998 19.9998 21.9998Z"/>
</g>

</g></symbol><symbol id="check" viewBox="0 0 32 30"><g fill="currentColor">
<g clip-path="url(#clip0_403_3730)" filter="url(#filter0_d_403_3730)">
<path d="M5.87815 5.12107L4.29315 3.53607L5.70715 2.12207L7.29315 3.70707C7.48352 3.8891 7.73676 3.99069 8.00015 3.99069C8.26354 3.99069 8.51678 3.8891 8.70715 3.70707L12.2932 0.12207L13.7072 1.53607L10.1212 5.12107C9.84257 5.3997 9.51183 5.62072 9.14782 5.77152C8.78381 5.92232 8.39366 5.99993 7.99965 5.99993C7.60564 5.99993 7.21549 5.92232 6.85148 5.77152C6.48747 5.62072 6.15673 5.3997 5.87815 5.12107ZM16.0002 5.00007H28.0002V3.00007H16.0002V5.00007ZM8.00015 14.0001C8.39426 14.0012 8.78468 13.9241 9.14877 13.7732C9.51285 13.6223 9.84337 13.4006 10.1212 13.1211L13.7072 9.53607L12.2932 8.12207L8.70715 11.7071C8.51678 11.8891 8.26354 11.9907 8.00015 11.9907C7.73676 11.9907 7.48352 11.8891 7.29315 11.7071L5.70715 10.1221L4.29315 11.5361L5.87815 13.1211C6.15619 13.4006 6.48689 13.6222 6.85113 13.7731C7.21536 13.924 7.6059 14.0011 8.00015 14.0001ZM16.0002 13.0001H28.0002V11.0001H16.0002V13.0001ZM8.00015 22.0001C8.39426 22.0012 8.78468 21.9241 9.14877 21.7732C9.51285 21.6223 9.84337 21.4006 10.1212 21.1211L13.7072 17.5361L12.2932 16.1221L8.70715 19.7071C8.51678 19.8891 8.26354 19.9907 8.00015 19.9907C7.73676 19.9907 7.48352 19.8891 7.29315 19.7071L5.70715 18.1221L4.29315 19.5361L5.87815 21.1211C6.15619 21.4006 6.48689 21.6222 6.85113 21.7731C7.21536 21.924 7.6059 22.0011 8.00015 22.0001ZM16.0002 21.0001H28.0002V19.0001H16.0002V21.0001Z"/>
</g>

</g></symbol><symbol id="credit-card" viewBox="0 0 24 24"><g fill="currentColor">
<g clip-path="url(#clip0_403_3593)">
<path d="M5.49988 17.0001C6.32831 17.0001 6.99988 16.3285 6.99988 15.5001C6.99988 14.6717 6.32831 14.0001 5.49988 14.0001C4.67145 14.0001 3.99988 14.6717 3.99988 15.5001C3.99988 16.3285 4.67145 17.0001 5.49988 17.0001Z"/>
<path d="M21 3H3C2.20435 3 1.44129 3.31607 0.87868 3.87868C0.31607 4.44129 0 5.20435 0 6L0 21H24V6C24 5.20435 23.6839 4.44129 23.1213 3.87868C22.5587 3.31607 21.7956 3 21 3ZM3 5H21C21.2652 5 21.5196 5.10536 21.7071 5.29289C21.8946 5.48043 22 5.73478 22 6V8H2V6C2 5.73478 2.10536 5.48043 2.29289 5.29289C2.48043 5.10536 2.73478 5 3 5ZM2 19V10H22V19H2Z"/>
</g>

</g></symbol><symbol id="database" viewBox="0 0 24 24"><g fill="currentColor">
<g clip-path="url(#clip0_403_3561)">
<path d="M24 3C24 2.20435 23.6839 1.44129 23.1213 0.87868C22.5587 0.31607 21.7956 0 21 0L3 0C2.20435 0 1.44129 0.31607 0.87868 0.87868C0.31607 1.44129 0 2.20435 0 3L0 6C0.00260366 6.7404 0.280648 7.45333 0.78 8C0.280648 8.54667 0.00260366 9.2596 0 10L0 13C0.00260366 13.7404 0.280648 14.4533 0.78 15C0.280648 15.5467 0.00260366 16.2596 0 17L0 23H24V17C23.9974 16.2596 23.7194 15.5467 23.22 15C23.7194 14.4533 23.9974 13.7404 24 13V10C23.9974 9.2596 23.7194 8.54667 23.22 8C23.7194 7.45333 23.9974 6.7404 24 6V3ZM2 3C2 2.73478 2.10536 2.48043 2.29289 2.29289C2.48043 2.10536 2.73478 2 3 2H5V4H7V2H9V4H11V2H21C21.2652 2 21.5196 2.10536 21.7071 2.29289C21.8946 2.48043 22 2.73478 22 3V6C22 6.26522 21.8946 6.51957 21.7071 6.70711C21.5196 6.89464 21.2652 7 21 7H3C2.73478 7 2.48043 6.89464 2.29289 6.70711C2.10536 6.51957 2 6.26522 2 6V3ZM22 10V13C22 13.2652 21.8946 13.5196 21.7071 13.7071C21.5196 13.8946 21.2652 14 21 14H3C2.73478 14 2.48043 13.8946 2.29289 13.7071C2.10536 13.5196 2 13.2652 2 13V10C2 9.73478 2.10536 9.48043 2.29289 9.29289C2.48043 9.10536 2.73478 9 3 9H5V11H7V9H9V11H11V9H21C21.2652 9 21.5196 9.10536 21.7071 9.29289C21.8946 9.48043 22 9.73478 22 10ZM22 21H2V17C2 16.7348 2.10536 16.4804 2.29289 16.2929C2.48043 16.1054 2.73478 16 3 16H5V18H7V16H9V18H11V16H21C21.2652 16 21.5196 16.1054 21.7071 16.2929C21.8946 16.4804 22 16.7348 22 17V21Z"/>
</g>

</g></symbol><symbol id="document" viewBox="0 0 24 24"><g fill="currentColor">
<g clip-path="url(#clip0_403_3537)">
<path d="M7.00012 12H17.0001V14H7.00012V12ZM7.00012 18H14.0001V16H7.00012V18ZM22.0001 7.586V24H2.00012V3C2.00012 2.20435 2.31619 1.44129 2.8788 0.87868C3.44141 0.31607 4.20447 0 5.00012 0L14.4141 0L22.0001 7.586ZM15.0001 7H18.5861L15.0001 3.414V7ZM20.0001 22V9H13.0001V2H5.00012C4.73491 2 4.48055 2.10536 4.29302 2.29289C4.10548 2.48043 4.00012 2.73478 4.00012 3V22H20.0001Z"/>
</g>

</g></symbol><symbol id="download" viewBox="0 0 24 24"><g fill="currentColor">
<g clip-path="url(#clip0_406_3825)">
<path d="M12.0322 19C12.4263 19.0007 12.8166 18.9234 13.1808 18.7728C13.545 18.6221 13.8758 18.4009 14.1542 18.122L18.0732 14.2L16.6592 12.79L13.0262 16.424L13.0002 0H11.0002L11.0262 16.408L7.40619 12.788L5.99219 14.2L9.91119 18.119C10.1893 18.3983 10.5198 18.6199 10.8838 18.7711C11.2478 18.9223 11.638 19.0001 12.0322 19Z"/>
<path d="M22 15.9999V20.9999C22 21.2651 21.8946 21.5194 21.7071 21.707C21.5196 21.8945 21.2652 21.9999 21 21.9999H3C2.73478 21.9999 2.48043 21.8945 2.29289 21.707C2.10536 21.5194 2 21.2651 2 20.9999V15.9999H0V20.9999C0 21.7955 0.31607 22.5586 0.87868 23.1212C1.44129 23.6838 2.20435 23.9999 3 23.9999H21C21.7956 23.9999 22.5587 23.6838 23.1213 23.1212C23.6839 22.5586 24 21.7955 24 20.9999V15.9999H22Z"/>
</g>

</g></symbol><symbol id="interlining" viewBox="0 0 24 24"><g fill="currentColor">
<g clip-path="url(#clip0_403_3451)">
<path d="M24.0003 4.00037H10.0003V6.00036H24.0003V4.00037Z"/>
<path d="M24.0003 11.0007H10.0003V13.0007H24.0003V11.0007Z"/>
<path d="M24.0003 18H10.0003V20H24.0003V18Z"/>
<path d="M8 6.00034L4.707 2.70734C4.51947 2.51987 4.26516 2.41455 4 2.41455C3.73484 2.41455 3.48053 2.51987 3.293 2.70734L0 6.00034H3V18.0003H0L3.293 21.2933C3.48053 21.4808 3.73484 21.5861 4 21.5861C4.26516 21.5861 4.51947 21.4808 4.707 21.2933L8 18.0003H5V6.00034H8Z"/>
</g>

</g></symbol><symbol id="list" viewBox="0 0 24 24"><g fill="currentColor">
<g clip-path="url(#clip0_403_3669)">
<path d="M24.0003 4.00037H7.00031V6.00036H24.0003V4.00037Z"/>
<path d="M24.0003 10.9998H7.00031V12.9998H24.0003V10.9998Z"/>
<path d="M24.0003 18H7.00031V20H24.0003V18Z"/>
<path d="M2 6.99999C3.10457 6.99999 4 6.10456 4 5C4 3.89543 3.10457 3 2 3C0.89543 3 0 3.89543 0 5C0 6.10456 0.89543 6.99999 2 6.99999Z"/>
<path d="M2 14.0004C3.10457 14.0004 4 13.1049 4 12.0004C4 10.8958 3.10457 10.0004 2 10.0004C0.89543 10.0004 0 10.8958 0 12.0004C0 13.1049 0.89543 14.0004 2 14.0004Z"/>
<path d="M2 20.9997C3.10457 20.9997 4 20.1043 4 18.9997C4 17.8951 3.10457 16.9997 2 16.9997C0.89543 16.9997 0 17.8951 0 18.9997C0 20.1043 0.89543 20.9997 2 20.9997Z"/>
</g>

</g></symbol><symbol id="lock" viewBox="0 0 24 24"><g fill="currentColor">
<g clip-path="url(#clip0_403_3655)">
<path d="M19.0001 8V7C19.0001 5.14348 18.2626 3.36301 16.9499 2.05025C15.6371 0.737498 13.8566 0 12.0001 0C10.1436 0 8.36313 0.737498 7.05037 2.05025C5.73762 3.36301 5.00012 5.14348 5.00012 7V8H2.00012V21C2.00012 21.7956 2.31619 22.5587 2.8788 23.1213C3.44141 23.6839 4.20447 24 5.00012 24H19.0001C19.7958 24 20.5588 23.6839 21.1214 23.1213C21.6841 22.5587 22.0001 21.7956 22.0001 21V8H19.0001ZM7.00012 7C7.00012 5.67392 7.52691 4.40215 8.46459 3.46447C9.40227 2.52678 10.674 2 12.0001 2C13.3262 2 14.598 2.52678 15.5357 3.46447C16.4733 4.40215 17.0001 5.67392 17.0001 7V8H7.00012V7ZM20.0001 21C20.0001 21.2652 19.8948 21.5196 19.7072 21.7071C19.5197 21.8946 19.2653 22 19.0001 22H5.00012C4.73491 22 4.48055 21.8946 4.29302 21.7071C4.10548 21.5196 4.00012 21.2652 4.00012 21V10H20.0001V21Z"/>
<path d="M13.0001 13.9996H11.0001V17.9996H13.0001V13.9996Z"/>
</g>

</g></symbol><symbol id="portrait" viewBox="0 0 24 24"><g fill="currentColor">
<g clip-path="url(#clip0_403_3763)">
<path d="M21 0H3C2.20435 0 1.44129 0.31607 0.87868 0.87868C0.31607 1.44129 0 2.20435 0 3L0 24H24V3C24 2.20435 23.6839 1.44129 23.1213 0.87868C22.5587 0.31607 21.7956 0 21 0V0ZM7 22V17C7 16.7348 7.10536 16.4804 7.29289 16.2929C7.48043 16.1054 7.73478 16 8 16H16C16.2652 16 16.5196 16.1054 16.7071 16.2929C16.8946 16.4804 17 16.7348 17 17V22H7ZM22 22H19V17C19 16.2044 18.6839 15.4413 18.1213 14.8787C17.5587 14.3161 16.7956 14 16 14H8C7.20435 14 6.44129 14.3161 5.87868 14.8787C5.31607 15.4413 5 16.2044 5 17V22H2V3C2 2.73478 2.10536 2.48043 2.29289 2.29289C2.48043 2.10536 2.73478 2 3 2H21C21.2652 2 21.5196 2.10536 21.7071 2.29289C21.8946 2.48043 22 2.73478 22 3V22Z"/>
<path d="M12.0001 3.99939C11.209 3.99939 10.4356 4.23399 9.77784 4.67351C9.12005 5.11304 8.60736 5.73775 8.30461 6.46866C8.00186 7.19956 7.92264 8.00383 8.07698 8.77975C8.23132 9.55568 8.61229 10.2684 9.1717 10.8278C9.73111 11.3872 10.4438 11.7682 11.2198 11.9225C11.9957 12.0769 12.8 11.9977 13.5309 11.6949C14.2618 11.3922 14.8865 10.8795 15.326 10.2217C15.7655 9.56387 16.0001 8.79051 16.0001 7.99939C16.0001 6.93852 15.5787 5.92111 14.8286 5.17096C14.0784 4.42082 13.061 3.99939 12.0001 3.99939ZM12.0001 9.99939C11.6046 9.99939 11.2179 9.88209 10.889 9.66233C10.5601 9.44257 10.3037 9.13021 10.1524 8.76476C10.001 8.3993 9.96138 7.99717 10.0386 7.60921C10.1157 7.22125 10.3062 6.86488 10.5859 6.58518C10.8656 6.30547 11.222 6.11499 11.6099 6.03782C11.9979 5.96065 12.4 6.00026 12.7655 6.15163C13.1309 6.30301 13.4433 6.55935 13.6631 6.88825C13.8828 7.21715 14.0001 7.60383 14.0001 7.99939C14.0001 8.52982 13.7894 9.03853 13.4143 9.4136C13.0393 9.78868 12.5306 9.99939 12.0001 9.99939Z"/>
</g>

</g></symbol><symbol id="search" viewBox="0 0 24 24"><g fill="currentColor">
<g clip-path="url(#clip0_403_2886)">
<path d="M23.7068 22.2937L17.7378 16.3247C19.3644 14.3353 20.1642 11.7968 19.9716 9.23426C19.7791 6.67173 18.609 4.28123 16.7034 2.55722C14.7977 0.833208 12.3024 -0.0924103 9.73342 -0.0281784C7.16447 0.0360534 4.71849 1.08522 2.9014 2.90231C1.08431 4.7194 0.0351379 7.16539 -0.029094 9.73434C-0.0933258 12.3033 0.832293 14.7987 2.5563 16.7043C4.28031 18.6099 6.67081 19.78 9.23334 19.9725C11.7959 20.1651 14.3344 19.3653 16.3238 17.7387L22.2928 23.7077C22.4814 23.8899 22.734 23.9907 22.9962 23.9884C23.2584 23.9861 23.5092 23.8809 23.6946 23.6955C23.88 23.5101 23.9852 23.2593 23.9875 22.9971C23.9897 22.7349 23.8889 22.4823 23.7068 22.2937ZM9.99978 18.0007C8.41753 18.0007 6.87081 17.5315 5.55522 16.6525C4.23963 15.7734 3.21425 14.524 2.60875 13.0622C2.00324 11.6004 1.84482 9.99182 2.1535 8.43998C2.46218 6.88813 3.22411 5.46266 4.34293 4.34384C5.46175 3.22502 6.88721 2.4631 8.43906 2.15442C9.99091 1.84573 11.5994 2.00416 13.0613 2.60966C14.5231 3.21516 15.7725 4.24054 16.6515 5.55614C17.5306 6.87173 17.9998 8.41845 17.9998 10.0007C17.9974 12.1217 17.1538 14.1551 15.654 15.6549C14.1542 17.1547 12.1208 17.9983 9.99978 18.0007Z"/>
</g>

</g></symbol><symbol id="settings-sliders" viewBox="0 0 24 24"><g fill="currentColor">
<g clip-path="url(#clip0_403_3508)">
<path d="M10.931 2.75032C10.7164 1.96059 10.2478 1.26343 9.59767 0.766389C8.94752 0.269352 8.15188 6.10352e-05 7.3335 6.10352e-05C6.51512 6.10352e-05 5.71948 0.269352 5.06933 0.766389C4.41917 1.26343 3.95064 1.96059 3.736 2.75032H0V4.75032H3.736C3.95064 5.54005 4.41917 6.23721 5.06933 6.73425C5.71948 7.23129 6.51512 7.50058 7.3335 7.50058C8.15188 7.50058 8.94752 7.23129 9.59767 6.73425C10.2478 6.23721 10.7164 5.54005 10.931 4.75032H24V2.75032H10.931ZM7.333 5.50032C6.98688 5.50032 6.64854 5.39768 6.36075 5.20539C6.07297 5.0131 5.84866 4.73979 5.71621 4.42002C5.58376 4.10024 5.5491 3.74838 5.61663 3.40891C5.68415 3.06945 5.85082 2.75763 6.09556 2.51288C6.3403 2.26814 6.65213 2.10147 6.99159 2.03395C7.33106 1.96642 7.68293 2.00108 8.0027 2.13353C8.32247 2.26598 8.59578 2.49029 8.78807 2.77807C8.98036 3.06586 9.083 3.4042 9.083 3.75032C9.08221 4.21421 8.89758 4.65886 8.56956 4.98688C8.24154 5.3149 7.79689 5.49953 7.333 5.50032Z"/>
<path d="M16.667 8.25C15.8495 8.25293 15.0553 8.5233 14.4058 9.01985C13.7564 9.51639 13.2872 10.2118 13.07 11H0V13H13.07C13.2843 13.7899 13.7526 14.4873 14.4027 14.9846C15.0528 15.4818 15.8485 15.7512 16.667 15.7512C17.4855 15.7512 18.2812 15.4818 18.9313 14.9846C19.5814 14.4873 20.0497 13.7899 20.264 13H24V11H20.264C20.0468 10.2118 19.5776 9.51639 18.9282 9.01985C18.2787 8.5233 17.4845 8.25293 16.667 8.25ZM16.667 13.75C16.3209 13.75 15.9825 13.6474 15.6948 13.4551C15.407 13.2628 15.1827 12.9895 15.0502 12.6697C14.9178 12.3499 14.8831 11.9981 14.9506 11.6586C15.0181 11.3191 15.1848 11.0073 15.4296 10.7626C15.6743 10.5178 15.9861 10.3511 16.3256 10.2836C16.6651 10.2161 17.0169 10.2508 17.3367 10.3832C17.6565 10.5157 17.9298 10.74 18.1221 11.0278C18.3144 11.3155 18.417 11.6539 18.417 12C18.4165 12.464 18.2319 12.9088 17.9039 13.2369C17.5758 13.5649 17.131 13.7495 16.667 13.75Z"/>
<path d="M7.333 16.5C6.51494 16.5023 5.72013 16.7723 5.07004 17.2689C4.41995 17.7655 3.95035 18.4613 3.733 19.25H0V21.25H3.736C3.95064 22.0397 4.41917 22.7369 5.06933 23.2339C5.71948 23.731 6.51512 24.0002 7.3335 24.0002C8.15188 24.0002 8.94752 23.731 9.59767 23.2339C10.2478 22.7369 10.7164 22.0397 10.931 21.25H24V19.25H10.931C10.7137 18.4617 10.2444 17.7661 9.59476 17.2695C8.94507 16.773 8.15072 16.5027 7.333 16.5ZM7.333 22C6.98688 22 6.64854 21.8974 6.36075 21.7051C6.07297 21.5128 5.84866 21.2395 5.71621 20.9197C5.58376 20.5999 5.5491 20.2481 5.61663 19.9086C5.68415 19.5691 5.85082 19.2573 6.09556 19.0126C6.3403 18.7678 6.65213 18.6011 6.99159 18.5336C7.33106 18.4661 7.68293 18.5008 8.0027 18.6332C8.32247 18.7657 8.59578 18.99 8.78807 19.2777C8.98036 19.5655 9.083 19.9039 9.083 20.25C9.08221 20.7139 8.89758 21.1585 8.56956 21.4866C8.24154 21.8146 7.79689 21.9992 7.333 22Z"/>
</g>

</g></symbol><symbol id="settings" viewBox="0 0 24 24"><g fill="currentColor">
<g clip-path="url(#clip0_406_3896)">
<path d="M20.9999 12C20.9997 11.4483 20.9495 10.8977 20.8499 10.355L23.8929 8.6L20.8929 3.4L17.8489 5.159C17.0085 4.43993 16.0427 3.88194 14.9999 3.513V0H8.99993V3.513C7.95719 3.88194 6.99139 4.43993 6.15093 5.159L3.10693 3.4L0.106934 8.6L3.14993 10.355C2.95004 11.4426 2.95004 12.5574 3.14993 13.645L0.106934 15.4L3.10693 20.6L6.15093 18.842C6.99147 19.5607 7.95726 20.1184 8.99993 20.487V24H14.9999V20.487C16.0427 20.1181 17.0085 19.5601 17.8489 18.841L20.8929 20.6L23.8929 15.4L20.8499 13.645C20.9495 13.1023 20.9997 12.5517 20.9999 12ZM14.9999 12C14.9999 12.5933 14.824 13.1734 14.4943 13.6667C14.1647 14.1601 13.6962 14.5446 13.148 14.7716C12.5998 14.9987 11.9966 15.0581 11.4147 14.9424C10.8327 14.8266 10.2982 14.5409 9.87861 14.1213C9.45905 13.7018 9.17333 13.1672 9.05758 12.5853C8.94182 12.0033 9.00123 11.4001 9.22829 10.8519C9.45536 10.3038 9.83988 9.83524 10.3332 9.50559C10.8266 9.17595 11.4066 9 11.9999 9C12.7956 9 13.5586 9.31607 14.1213 9.87868C14.6839 10.4413 14.9999 11.2044 14.9999 12Z"/>
</g>

</g></symbol><symbol id="sign-out" viewBox="0 0 24 24"><g fill="currentColor">
<g clip-path="url(#clip0_403_3358)">
<path d="M2 21V3C2 2.73478 2.10536 2.48043 2.29289 2.29289C2.48043 2.10536 2.73478 2 3 2H8V0H3C2.20435 0 1.44129 0.31607 0.87868 0.87868C0.31607 1.44129 0 2.20435 0 3L0 21C0 21.7956 0.31607 22.5587 0.87868 23.1213C1.44129 23.6839 2.20435 24 3 24H8V22H3C2.73478 22 2.48043 21.8946 2.29289 21.7071C2.10536 21.5196 2 21.2652 2 21Z"/>
<path d="M23.1226 9.87842L18.5366 5.29242L17.1226 6.70642L21.3866 10.9704L4.99963 10.9994V12.9994L21.4426 12.9704L17.1206 17.2924L18.5346 18.7064L23.1206 14.1204C23.6833 13.5581 23.9996 12.7953 24 11.9998C24.0004 11.2043 23.6848 10.4413 23.1226 9.87842Z"/>
</g>

</g></symbol></svg>